<svg xmlns="http://www.w3.org/2000/svg" viewBox="0 0 100 100" width="100" height="100">
  <!-- 小鹿頭像 - 吉卜力風格 -->
  <defs>
    <radialGradient id="deerBodyGradient" cx="0.3" cy="0.3">
      <stop offset="0%" stop-color="#D2B48C"/>
      <stop offset="100%" stop-color="#A0522D"/>
    </radialGradient>
    <radialGradient id="deerBellyGradient" cx="0.3" cy="0.3">
      <stop offset="0%" stop-color="#F5DEB3"/>
      <stop offset="100%" stop-color="#DEB887"/>
    </radialGradient>
  </defs>
  
  <!-- 身體 -->
  <ellipse cx="50" cy="65" rx="25" ry="22" fill="url(#deerBodyGradient)"/>
  
  <!-- 胸部 -->
  <ellipse cx="50" cy="70" rx="16" ry="15" fill="url(#deerBellyGradient)"/>
  
  <!-- 頭部 -->
  <ellipse cx="50" cy="45" rx="18" ry="20" fill="url(#deerBodyGradient)"/>
  
  <!-- 嘴部 -->
  <ellipse cx="50" cy="55" rx="8" ry="6" fill="url(#deerBellyGradient)"/>
  
  <!-- 鹿角 -->
  <path d="M 42 25 L 40 15 M 40 20 L 35 18 M 40 20 L 45 16" stroke="#8B4513" stroke-width="2" fill="none"/>
  <path d="M 58 25 L 60 15 M 60 20 L 65 18 M 60 20 L 55 16" stroke="#8B4513" stroke-width="2" fill="none"/>
  
  <!-- 耳朵 -->
  <ellipse cx="40" cy="35" rx="4" ry="8" fill="url(#deerBodyGradient)" transform="rotate(-20 40 35)"/>
  <ellipse cx="60" cy="35" rx="4" ry="8" fill="url(#deerBodyGradient)" transform="rotate(20 60 35)"/>
  <ellipse cx="40" cy="35" rx="2" ry="5" fill="#FFB6C1" transform="rotate(-20 40 35)"/>
  <ellipse cx="60" cy="35" rx="2" ry="5" fill="#FFB6C1" transform="rotate(20 60 35)"/>
  
  <!-- 眼睛 -->
  <ellipse cx="44" cy="42" rx="3" ry="4" fill="#000"/>
  <ellipse cx="56" cy="42" rx="3" ry="4" fill="#000"/>
  <circle cx="45" cy="40" r="1" fill="#FFF"/>
  <circle cx="57" cy="40" r="1" fill="#FFF"/>
  
  <!-- 鼻子 -->
  <ellipse cx="50" cy="52" rx="1.5" ry="1" fill="#000"/>
  
  <!-- 嘴巴 -->
  <path d="M 47 56 Q 50 58 53 56" stroke="#000" stroke-width="1" fill="none"/>
  
  <!-- 斑點 -->
  <circle cx="38" cy="48" r="2" fill="#FFF" opacity="0.8"/>
  <circle cx="62" cy="50" r="1.5" fill="#FFF" opacity="0.8"/>
  <circle cx="45" cy="65" r="2.5" fill="#FFF" opacity="0.8"/>
  <circle cx="58" cy="68" r="2" fill="#FFF" opacity="0.8"/>
  
  <!-- 細長腿 -->
  <ellipse cx="42" cy="85" rx="3" ry="8" fill="url(#deerBodyGradient)"/>
  <ellipse cx="58" cy="85" rx="3" ry="8" fill="url(#deerBodyGradient)"/>
  
  <!-- 蹄子 -->
  <ellipse cx="42" cy="90" rx="2" ry="3" fill="#2F2F2F"/>
  <ellipse cx="58" cy="90" rx="2" ry="3" fill="#2F2F2F"/>
</svg>