<svg
  width="300"
  height="200"
  viewBox="0 0 300 200"
  style={{ borderRadius: '12px', background: '#87CEEB' }}
>
  {/* 背景天空 */}
  <defs>
    <linearGradient id="skyGradient" x1="0%" y1="0%" x2="0%" y2="100%">
      <stop offset="0%" stopColor="#87CEEB" />
      <stop offset="100%" stopColor="#98FB98" />
    </linearGradient>
  </defs>
  <rect width="300" height="200" fill="url(#skyGradient)" />
  
  {/* 雲朵 */}
  <ellipse cx="50" cy="30" rx="20" ry="12" fill="white" opacity="0.8" />
  <ellipse cx="250" cy="40" rx="25" ry="15" fill="white" opacity="0.8" />
  
  {/* 房子 */}
  <rect x="100" y="120" width="100" height="60" fill="#DEB887" />
  <polygon points="100,120 150,80 200,120" fill="#8B4513" />
  <rect x="120" y="140" width="15" height="25" fill="#654321" />
  <rect x="165" y="135" width="20" height="20" fill="#87CEEB" />
  
  {/* 樹木 */}
  <rect x="40" y="150" width="8" height="30" fill="#8B4513" />
  <circle cx="44" cy="145" r="15" fill="#228B22" />
  <rect x="250" y="140" width="10" height="40" fill="#8B4513" />
  <circle cx="255" cy="135" r="18" fill="#32CD32" />
  
  {/* 動物們 */}
  {/* 兔子 */}
  <ellipse cx="70" cy="170" rx="8" ry="6" fill="white" />
  <circle cx="70" cy="165" r="5" fill="white" />
  <ellipse cx="68" cy="162" rx="2" ry="4" fill="white" />
  <ellipse cx="72" cy="162" rx="2" ry="4" fill="white" />
  <circle cx="68" cy="164" r="1" fill="black" />
  <circle cx="72" cy="164" r="1" fill="black" />
  
  {/* 貓咪 */}
  <ellipse cx="220" cy="170" rx="10" ry="7" fill="#FF6347" />
  <circle cx="220" cy="162" r="6" fill="#FF6347" />
  <polygon points="217,158 220,155 223,158" fill="#FF6347" />
  <polygon points="217,158 220,155 223,158" fill="#FF6347" />
  <circle cx="218" cy="162" r="1" fill="black" />
  <circle cx="222" cy="162" r="1" fill="black" />
  
  {/* 小鳥 */}
  <ellipse cx="150" cy="100" rx="4" ry="3" fill="#FFD700" />
  <circle cx="150" cy="98" r="2" fill="#FFD700" />
  <polygon points="148,98 146,99 148,100" fill="#FFA500" />
  
  {/* 蝴蝶 */}
  <ellipse cx="180" cy="110" rx="3" ry="2" fill="#FF69B4" transform="rotate(15 180 110)" />
  <ellipse cx="180" cy="110" rx="3" ry="2" fill="#FF1493" transform="rotate(-15 180 110)" />
  <line x1="180" y1="108" x2="180" y2="112" stroke="black" strokeWidth="1" />
  
  {/* 花朵 */}
  <circle cx="30" cy="180" r="3" fill="#FF69B4" />
  <circle cx="27" cy="177" r="2" fill="#FF1493" />
  <circle cx="33" cy="177" r="2" fill="#FF1493" />
  <circle cx="27" cy="183" r="2" fill="#FF1493" />
  <circle cx="33" cy="183" r="2" fill="#FF1493" />
  
  <circle cx="270" cy="175" r="3" fill="#9370DB" />
  <circle cx="267" cy="172" r="2" fill="#8A2BE2" />
  <circle cx="273" cy="172" r="2" fill="#8A2BE2" />
  <circle cx="267" cy="178" r="2" fill="#8A2BE2" />
  <circle cx="273" cy="178" r="2" fill="#8A2BE2" />
</svg>