<svg xmlns="http://www.w3.org/2000/svg" viewBox="0 0 100 100" width="100" height="100">
  <!-- 小刺蝟頭像 - 吉卜力風格 -->
  <defs>
    <radialGradient id="hedgehogBodyGradient" cx="0.3" cy="0.3">
      <stop offset="0%" stop-color="#8B7D6B"/>
      <stop offset="100%" stop-color="#5D4E37"/>
    </radialGradient>
    <radialGradient id="hedgehogBellyGradient" cx="0.3" cy="0.3">
      <stop offset="0%" stop-color="#F5DEB3"/>
      <stop offset="100%" stop-color="#DEB887"/>
    </radialGradient>
  </defs>
  
  <!-- 身體 -->
  <ellipse cx="50" cy="65" rx="28" ry="22" fill="url(#hedgehogBodyGradient)"/>
  
  <!-- 肚子 -->
  <ellipse cx="50" cy="70" rx="18" ry="15" fill="url(#hedgehogBellyGradient)"/>
  
  <!-- 頭部 -->
  <ellipse cx="50" cy="48" rx="18" ry="16" fill="url(#hedgehogBodyGradient)"/>
  
  <!-- 尖嘴 -->
  <ellipse cx="50" cy="55" rx="6" ry="4" fill="url(#hedgehogBellyGradient)"/>
  <path d="M 44 55 L 50 58 L 56 55 Z" fill="url(#hedgehogBellyGradient)"/>
  
  <!-- 刺毛 -->
  <path d="M 35 45 L 32 35" stroke="#2F2F2F" stroke-width="2"/>
  <path d="M 40 40 L 38 30" stroke="#2F2F2F" stroke-width="2"/>
  <path d="M 45 38 L 44 28" stroke="#2F2F2F" stroke-width="2"/>
  <path d="M 50 37 L 50 27" stroke="#2F2F2F" stroke-width="2"/>
  <path d="M 55 38 L 56 28" stroke="#2F2F2F" stroke-width="2"/>
  <path d="M 60 40 L 62 30" stroke="#2F2F2F" stroke-width="2"/>
  <path d="M 65 45 L 68 35" stroke="#2F2F2F" stroke-width="2"/>
  
  <!-- 身體刺毛 -->
  <path d="M 30 55 L 25 50" stroke="#2F2F2F" stroke-width="1.5"/>
  <path d="M 28 65 L 22 62" stroke="#2F2F2F" stroke-width="1.5"/>
  <path d="M 32 75 L 26 75" stroke="#2F2F2F" stroke-width="1.5"/>
  <path d="M 70 55 L 75 50" stroke="#2F2F2F" stroke-width="1.5"/>
  <path d="M 72 65 L 78 62" stroke="#2F2F2F" stroke-width="1.5"/>
  <path d="M 68 75 L 74 75" stroke="#2F2F2F" stroke-width="1.5"/>
  
  <!-- 小耳朵 -->
  <ellipse cx="42" cy="42" rx="2" ry="4" fill="url(#hedgehogBodyGradient)" transform="rotate(-20 42 42)"/>
  <ellipse cx="58" cy="42" rx="2" ry="4" fill="url(#hedgehogBodyGradient)" transform="rotate(20 58 42)"/>
  
  <!-- 眼睛 -->
  <circle cx="45" cy="46" r="3" fill="#000"/>
  <circle cx="55" cy="46" r="3" fill="#000"/>
  <circle cx="46" cy="44" r="1" fill="#FFF"/>
  <circle cx="56" cy="44" r="1" fill="#FFF"/>
  
  <!-- 鼻子 -->
  <circle cx="50" cy="56" r="1" fill="#000"/>
  
  <!-- 嘴巴 -->
  <path d="M 48 58 Q 50 60 52 58" stroke="#000" stroke-width="0.8" fill="none"/>
  
  <!-- 小腳 -->
  <ellipse cx="42" cy="82" rx="4" ry="5" fill="url(#hedgehogBodyGradient)"/>
  <ellipse cx="58" cy="82" rx="4" ry="5" fill="url(#hedgehogBodyGradient)"/>
</svg>