<svg xmlns="http://www.w3.org/2000/svg" viewBox="0 0 100 100" width="100" height="100">
  <!-- 黑貓吉吉頭像 - 吉卜力風格 -->
  <defs>
    <radialGradient id="catBodyGradient" cx="0.3" cy="0.3">
      <stop offset="0%" stop-color="#2F2F2F"/>
      <stop offset="100%" stop-color="#000000"/>
    </radialGradient>
  </defs>
  
  <!-- 身體 -->
  <ellipse cx="50" cy="65" rx="30" ry="25" fill="url(#catBodyGradient)"/>
  
  <!-- 頭部 -->
  <circle cx="50" cy="45" r="22" fill="url(#catBodyGradient)"/>
  
  <!-- 耳朵 -->
  <path d="M 32 30 L 38 20 L 45 35 Z" fill="url(#catBodyGradient)"/>
  <path d="M 55 35 L 62 20 L 68 30 Z" fill="url(#catBodyGradient)"/>
  <path d="M 35 28 L 39 23 L 42 32 Z" fill="#FF69B4"/>
  <path d="M 58 32 L 61 23 L 65 28 Z" fill="#FF69B4"/>
  
  <!-- 眼睛 -->
  <ellipse cx="42" cy="42" rx="4" ry="6" fill="#32CD32"/>
  <ellipse cx="58" cy="42" rx="4" ry="6" fill="#32CD32"/>
  <ellipse cx="42" cy="42" rx="1.5" ry="4" fill="#000"/>
  <ellipse cx="58" cy="42" rx="1.5" ry="4" fill="#000"/>
  <circle cx="43" cy="40" r="1" fill="#FFF"/>
  <circle cx="59" cy="40" r="1" fill="#FFF"/>
  
  <!-- 鼻子 -->
  <path d="M 48 48 L 50 45 L 52 48 Z" fill="#FF69B4"/>
  
  <!-- 嘴巴 -->
  <path d="M 50 48 L 45 52 M 50 48 L 55 52" stroke="#000" stroke-width="1.5" fill="none"/>
  
  <!-- 鬍鬚 -->
  <line x1="28" y1="45" x2="38" y2="46" stroke="#FFF" stroke-width="1"/>
  <line x1="28" y1="50" x2="38" y2="50" stroke="#FFF" stroke-width="1"/>
  <line x1="28" y1="55" x2="38" y2="54" stroke="#FFF" stroke-width="1"/>
  <line x1="62" y1="46" x2="72" y2="45" stroke="#FFF" stroke-width="1"/>
  <line x1="62" y1="50" x2="72" y2="50" stroke="#FFF" stroke-width="1"/>
  <line x1="62" y1="54" x2="72" y2="55" stroke="#FFF" stroke-width="1"/>
  
  <!-- 尾巴 -->
  <path d="M 75 70 Q 85 60 80 45 Q 75 50 70 65" stroke="url(#catBodyGradient)" stroke-width="8" fill="none"/>
</svg>