<svg width="400" height="160" viewBox="0 0 400 160" xmlns="http://www.w3.org/2000/svg">
  <!-- Background -->
  <rect width="400" height="160" fill="#f8f5f0" rx="15"/>
  
  <!-- Left Guardian Dog - Ghibli Style -->
  <g transform="translate(45, 30)">
    <!-- Body -->
    <ellipse cx="30" cy="55" rx="22" ry="30" fill="#d4a574" stroke="#b8956a" stroke-width="2"/>
    
    <!-- Head -->
    <circle cx="30" cy="30" r="25" fill="#e6c08a" stroke="#b8956a" stroke-width="2"/>
    
    <!-- Ears -->
    <ellipse cx="18" cy="18" rx="10" ry="15" fill="#d4a574" stroke="#b8956a" stroke-width="1.5" transform="rotate(-30 18 18)"/>
    <ellipse cx="42" cy="18" rx="10" ry="15" fill="#d4a574" stroke="#b8956a" stroke-width="1.5" transform="rotate(30 42 18)"/>
    
    <!-- Eyes -->
    <circle cx="24" cy="27" r="4" fill="#2c2c2c"/>
    <circle cx="36" cy="27" r="4" fill="#2c2c2c"/>
    <circle cx="25" cy="26" r="1.5" fill="white"/>
    <circle cx="37" cy="26" r="1.5" fill="white"/>
    
    <!-- Nose -->
    <ellipse cx="30" cy="34" rx="2.5" ry="2" fill="#2c2c2c"/>
    
    <!-- Mouth -->
    <path d="M 30 37 Q 26 40 22 37" stroke="#2c2c2c" stroke-width="2" fill="none"/>
    <path d="M 30 37 Q 34 40 38 37" stroke="#2c2c2c" stroke-width="2" fill="none"/>
    
    <!-- Tail -->
    <ellipse cx="8" cy="50" rx="8" ry="18" fill="#d4a574" stroke="#b8956a" stroke-width="1.5" transform="rotate(-20 8 50)"/>
    
    <!-- Legs -->
    <ellipse cx="18" cy="80" rx="5" ry="10" fill="#d4a574" stroke="#b8956a" stroke-width="1.5"/>
    <ellipse cx="30" cy="80" rx="5" ry="10" fill="#d4a574" stroke="#b8956a" stroke-width="1.5"/>
    <ellipse cx="42" cy="80" rx="5" ry="10" fill="#d4a574" stroke="#b8956a" stroke-width="1.5"/>
    
    <!-- Guardian pose - sitting upright -->
    <ellipse cx="30" cy="70" rx="18" ry="8" fill="#d4a574" stroke="#b8956a" stroke-width="1.5"/>
  </g>
  
  <!-- Center Text: GOGOKOO -->
  <g transform="translate(200, 40)">
    <text x="0" y="30" font-family="Arial, sans-serif" font-size="36" font-weight="bold" fill="#4a5d4a" text-anchor="middle">
      GOGO
    </text>
    <text x="0" y="70" font-family="Arial, sans-serif" font-size="36" font-weight="bold" fill="#6b8e6b" text-anchor="middle">
      KOO
    </text>
  </g>
  
  <!-- Right Guardian Dog - Ghibli Style -->
  <g transform="translate(295, 30)">
    <!-- Body -->
    <ellipse cx="30" cy="55" rx="22" ry="30" fill="#8fbc8f" stroke="#7a9d7a" stroke-width="2"/>
    
    <!-- Head -->
    <circle cx="30" cy="30" r="25" fill="#a8d3a8" stroke="#7a9d7a" stroke-width="2"/>
    
    <!-- Ears -->
    <ellipse cx="18" cy="18" rx="10" ry="15" fill="#8fbc8f" stroke="#7a9d7a" stroke-width="1.5" transform="rotate(-30 18 18)"/>
    <ellipse cx="42" cy="18" rx="10" ry="15" fill="#8fbc8f" stroke="#7a9d7a" stroke-width="1.5" transform="rotate(30 42 18)"/>
    
    <!-- Eyes -->
    <circle cx="24" cy="27" r="4" fill="#2c2c2c"/>
    <circle cx="36" cy="27" r="4" fill="#2c2c2c"/>
    <circle cx="25" cy="26" r="1.5" fill="white"/>
    <circle cx="37" cy="26" r="1.5" fill="white"/>
    
    <!-- Nose -->
    <ellipse cx="30" cy="34" rx="2.5" ry="2" fill="#2c2c2c"/>
    
    <!-- Mouth -->
    <path d="M 30 37 Q 26 40 22 37" stroke="#2c2c2c" stroke-width="2" fill="none"/>
    <path d="M 30 37 Q 34 40 38 37" stroke="#2c2c2c" stroke-width="2" fill="none"/>
    
    <!-- Tail -->
    <ellipse cx="52" cy="50" rx="8" ry="18" fill="#8fbc8f" stroke="#7a9d7a" stroke-width="1.5" transform="rotate(20 52 50)"/>
    
    <!-- Legs -->
    <ellipse cx="18" cy="80" rx="5" ry="10" fill="#8fbc8f" stroke="#7a9d7a" stroke-width="1.5"/>
    <ellipse cx="30" cy="80" rx="5" ry="10" fill="#8fbc8f" stroke="#7a9d7a" stroke-width="1.5"/>
    <ellipse cx="42" cy="80" rx="5" ry="10" fill="#8fbc8f" stroke="#7a9d7a" stroke-width="1.5"/>
    
    <!-- Guardian pose - sitting upright -->
    <ellipse cx="30" cy="70" rx="18" ry="8" fill="#8fbc8f" stroke="#7a9d7a" stroke-width="1.5"/>
  </g>
  
  <!-- Decorative elements (Ghibli style) -->
  <g opacity="0.4">
    <!-- Small leaves around the logo -->
    <ellipse cx="120" cy="20" rx="4" ry="8" fill="#8fbc8f" transform="rotate(45 120 20)"/>
    <ellipse cx="260" cy="20" rx="4" ry="8" fill="#d4a574" transform="rotate(-45 260 20)"/>
    <ellipse cx="80" cy="130" rx="3" ry="6" fill="#8fbc8f" transform="rotate(60 80 130)"/>
    <ellipse cx="320" cy="130" rx="3" ry="6" fill="#d4a574" transform="rotate(-60 320 130)"/>
    
    <!-- Small dots -->
    <circle cx="110" cy="110" r="2" fill="#b8956a"/>
    <circle cx="290" cy="110" r="2" fill="#7a9d7a"/>
    <circle cx="200" cy="25" r="1.5" fill="#d4a574"/>
    <circle cx="200" cy="135" r="1.5" fill="#8fbc8f"/>
  </g>
</svg>