<svg width="300" height="120" viewBox="0 0 300 120" xmlns="http://www.w3.org/2000/svg">
  <!-- Background -->
  <rect width="300" height="120" fill="#f8f5f0" rx="10"/>
  
  <!-- First Dog (Left) - Ghibli Style -->
  <g transform="translate(20, 20)">
    <!-- Body -->
    <ellipse cx="25" cy="45" rx="18" ry="25" fill="#d4a574" stroke="#b8956a" stroke-width="1.5"/>
    
    <!-- Head -->
    <circle cx="25" cy="25" r="20" fill="#e6c08a" stroke="#b8956a" stroke-width="1.5"/>
    
    <!-- Ears -->
    <ellipse cx="15" cy="15" rx="8" ry="12" fill="#d4a574" stroke="#b8956a" stroke-width="1" transform="rotate(-30 15 15)"/>
    <ellipse cx="35" cy="15" rx="8" ry="12" fill="#d4a574" stroke="#b8956a" stroke-width="1" transform="rotate(30 35 15)"/>
    
    <!-- Eyes -->
    <circle cx="20" cy="22" r="3" fill="#2c2c2c"/>
    <circle cx="30" cy="22" r="3" fill="#2c2c2c"/>
    <circle cx="21" cy="21" r="1" fill="white"/>
    <circle cx="31" cy="21" r="1" fill="white"/>
    
    <!-- Nose -->
    <ellipse cx="25" cy="28" rx="2" ry="1.5" fill="#2c2c2c"/>
    
    <!-- Mouth -->
    <path d="M 25 30 Q 22 32 20 30" stroke="#2c2c2c" stroke-width="1.5" fill="none"/>
    <path d="M 25 30 Q 28 32 30 30" stroke="#2c2c2c" stroke-width="1.5" fill="none"/>
    
    <!-- Tail -->
    <ellipse cx="8" cy="40" rx="6" ry="15" fill="#d4a574" stroke="#b8956a" stroke-width="1" transform="rotate(-20 8 40)"/>
    
    <!-- Legs -->
    <ellipse cx="15" cy="65" rx="4" ry="8" fill="#d4a574" stroke="#b8956a" stroke-width="1"/>
    <ellipse cx="25" cy="65" rx="4" ry="8" fill="#d4a574" stroke="#b8956a" stroke-width="1"/>
    <ellipse cx="35" cy="65" rx="4" ry="8" fill="#d4a574" stroke="#b8956a" stroke-width="1"/>
  </g>
  
  <!-- Second Dog (Right) - Ghibli Style -->
  <g transform="translate(60, 25)">
    <!-- Body -->
    <ellipse cx="25" cy="40" rx="16" ry="22" fill="#8fbc8f" stroke="#7a9d7a" stroke-width="1.5"/>
    
    <!-- Head -->
    <circle cx="25" cy="22" r="18" fill="#a8d3a8" stroke="#7a9d7a" stroke-width="1.5"/>
    
    <!-- Ears -->
    <ellipse cx="16" cy="12" rx="7" ry="10" fill="#8fbc8f" stroke="#7a9d7a" stroke-width="1" transform="rotate(-25 16 12)"/>
    <ellipse cx="34" cy="12" rx="7" ry="10" fill="#8fbc8f" stroke="#7a9d7a" stroke-width="1" transform="rotate(25 34 12)"/>
    
    <!-- Eyes -->
    <circle cx="20" cy="20" r="2.5" fill="#2c2c2c"/>
    <circle cx="30" cy="20" r="2.5" fill="#2c2c2c"/>
    <circle cx="20.5" cy="19.5" r="0.8" fill="white"/>
    <circle cx="30.5" cy="19.5" r="0.8" fill="white"/>
    
    <!-- Nose -->
    <ellipse cx="25" cy="25" rx="1.8" ry="1.3" fill="#2c2c2c"/>
    
    <!-- Mouth -->
    <path d="M 25 27 Q 22 29 19 27" stroke="#2c2c2c" stroke-width="1.5" fill="none"/>
    <path d="M 25 27 Q 28 29 31 27" stroke="#2c2c2c" stroke-width="1.5" fill="none"/>
    
    <!-- Tail -->
    <ellipse cx="42" cy="35" rx="5" ry="12" fill="#8fbc8f" stroke="#7a9d7a" stroke-width="1" transform="rotate(15 42 35)"/>
    
    <!-- Legs -->
    <ellipse cx="17" cy="58" rx="3.5" ry="7" fill="#8fbc8f" stroke="#7a9d7a" stroke-width="1"/>
    <ellipse cx="25" cy="58" rx="3.5" ry="7" fill="#8fbc8f" stroke="#7a9d7a" stroke-width="1"/>
    <ellipse cx="33" cy="58" rx="3.5" ry="7" fill="#8fbc8f" stroke="#7a9d7a" stroke-width="1"/>
  </g>
  
  <!-- Text: GOGOKOO -->
  <g transform="translate(140, 30)">
    <text x="0" y="25" font-family="Arial, sans-serif" font-size="28" font-weight="bold" fill="#4a5d4a">
      GOGO
    </text>
    <text x="0" y="55" font-family="Arial, sans-serif" font-size="28" font-weight="bold" fill="#6b8e6b">
      KOO
    </text>
  </g>
  
  <!-- Decorative elements (Ghibli style) -->
  <g opacity="0.3">
    <!-- Small leaves -->
    <ellipse cx="120" cy="15" rx="3" ry="6" fill="#8fbc8f" transform="rotate(45 120 15)"/>
    <ellipse cx="280" cy="25" rx="2" ry="4" fill="#d4a574" transform="rotate(-30 280 25)"/>
    <ellipse cx="270" cy="95" rx="2.5" ry="5" fill="#8fbc8f" transform="rotate(60 270 95)"/>
    
    <!-- Small dots -->
    <circle cx="130" cy="85" r="1.5" fill="#b8956a"/>
    <circle cx="260" cy="45" r="1" fill="#7a9d7a"/>
    <circle cx="25" cy="100" r="1.2" fill="#d4a574"/>
  </g>
</svg>