<svg xmlns="http://www.w3.org/2000/svg" viewBox="0 0 100 100" width="100" height="100">
  <!-- 貓頭鷹頭像 - 吉卜力風格 -->
  <defs>
    <radialGradient id="owlBodyGradient" cx="0.3" cy="0.3">
      <stop offset="0%" stop-color="#8B7D6B"/>
      <stop offset="100%" stop-color="#5D4E37"/>
    </radialGradient>
    <radialGradient id="owlBellyGradient" cx="0.3" cy="0.3">
      <stop offset="0%" stop-color="#F5F5DC"/>
      <stop offset="100%" stop-color="#E6E6D4"/>
    </radialGradient>
  </defs>
  
  <!-- 身體 -->
  <ellipse cx="50" cy="65" rx="28" ry="25" fill="url(#owlBodyGradient)"/>
  
  <!-- 胸部羽毛 -->
  <ellipse cx="50" cy="70" rx="18" ry="20" fill="url(#owlBellyGradient)"/>
  
  <!-- 頭部 -->
  <circle cx="50" cy="45" r="25" fill="url(#owlBodyGradient)"/>
  
  <!-- 臉部羽毛圓盤 -->
  <circle cx="50" cy="45" r="20" fill="url(#owlBellyGradient)"/>
  
  <!-- 耳朵羽毛 -->
  <path d="M 32 25 L 35 15 L 40 28 Z" fill="url(#owlBodyGradient)"/>
  <path d="M 60 28 L 65 15 L 68 25 Z" fill="url(#owlBodyGradient)"/>
  
  <!-- 大眼睛 -->
  <circle cx="42" cy="42" r="8" fill="#FFF"/>
  <circle cx="58" cy="42" r="8" fill="#FFF"/>
  <circle cx="42" cy="42" r="6" fill="#FFD700"/>
  <circle cx="58" cy="42" r="6" fill="#FFD700"/>
  <circle cx="42" cy="42" r="3" fill="#000"/>
  <circle cx="58" cy="42" r="3" fill="#000"/>
  <circle cx="43" cy="40" r="1" fill="#FFF"/>
  <circle cx="59" cy="40" r="1" fill="#FFF"/>
  
  <!-- 喙 -->
  <path d="M 48 52 L 50 58 L 52 52 Z" fill="#FFA500"/>
  
  <!-- 翅膀 -->
  <ellipse cx="25" cy="65" rx="10" ry="18" fill="url(#owlBodyGradient)" transform="rotate(-15 25 65)"/>
  <ellipse cx="75" cy="65" rx="10" ry="18" fill="url(#owlBodyGradient)" transform="rotate(15 75 65)"/>
  
  <!-- 羽毛紋理 -->
  <path d="M 45 75 Q 50 78 55 75" stroke="#8B7D6B" stroke-width="1" fill="none"/>
  <path d="M 42 80 Q 50 83 58 80" stroke="#8B7D6B" stroke-width="1" fill="none"/>
  
  <!-- 爪子 -->
  <ellipse cx="42" cy="88" rx="4" ry="6" fill="#FFA500"/>
  <ellipse cx="58" cy="88" rx="4" ry="6" fill="#FFA500"/>
</svg>