<svg xmlns="http://www.w3.org/2000/svg" viewBox="0 0 100 100" width="100" height="100">
  <!-- 兔子頭像 - 吉卜力風格 -->
  <defs>
    <radialGradient id="rabbitBodyGradient" cx="0.3" cy="0.3">
      <stop offset="0%" stop-color="#F5F5F5"/>
      <stop offset="100%" stop-color="#E0E0E0"/>
    </radialGradient>
    <radialGradient id="rabbitEarGradient" cx="0.3" cy="0.3">
      <stop offset="0%" stop-color="#FFB6C1"/>
      <stop offset="100%" stop-color="#FF91A4"/>
    </radialGradient>
  </defs>
  
  <!-- 身體 -->
  <ellipse cx="50" cy="65" rx="25" ry="22" fill="url(#rabbitBodyGradient)"/>
  
  <!-- 頭部 -->
  <circle cx="50" cy="48" r="20" fill="url(#rabbitBodyGradient)"/>
  
  <!-- 長耳朵 -->
  <ellipse cx="42" cy="25" rx="6" ry="18" fill="url(#rabbitBodyGradient)" transform="rotate(-15 42 25)"/>
  <ellipse cx="58" cy="25" rx="6" ry="18" fill="url(#rabbitBodyGradient)" transform="rotate(15 58 25)"/>
  <ellipse cx="42" cy="25" rx="3" ry="12" fill="url(#rabbitEarGradient)" transform="rotate(-15 42 25)"/>
  <ellipse cx="58" cy="25" rx="3" ry="12" fill="url(#rabbitEarGradient)" transform="rotate(15 58 25)"/>
  
  <!-- 眼睛 -->
  <circle cx="44" cy="44" r="4" fill="#000"/>
  <circle cx="56" cy="44" r="4" fill="#000"/>
  <circle cx="45" cy="42" r="1.5" fill="#FFF"/>
  <circle cx="57" cy="42" r="1.5" fill="#FFF"/>
  
  <!-- 鼻子 -->
  <ellipse cx="50" cy="50" rx="1.5" ry="2" fill="#FFB6C1"/>
  
  <!-- 嘴巴 -->
  <path d="M 48 53 Q 50 55 52 53" stroke="#000" stroke-width="1" fill="none"/>
  <line x1="50" y1="50" x2="50" y2="53" stroke="#000" stroke-width="1"/>
  
  <!-- 鬍鬚 -->
  <line x1="35" y1="48" x2="42" y2="49" stroke="#000" stroke-width="0.8"/>
  <line x1="35" y1="52" x2="42" y2="52" stroke="#000" stroke-width="0.8"/>
  <line x1="58" y1="49" x2="65" y2="48" stroke="#000" stroke-width="0.8"/>
  <line x1="58" y1="52" x2="65" y2="52" stroke="#000" stroke-width="0.8"/>
  
  <!-- 小尾巴 -->
  <circle cx="75" cy="75" r="5" fill="url(#rabbitBodyGradient)"/>
  
  <!-- 腳掌 -->
  <ellipse cx="40" cy="82" rx="6" ry="8" fill="url(#rabbitBodyGradient)"/>
  <ellipse cx="60" cy="82" rx="6" ry="8" fill="url(#rabbitBodyGradient)"/>
</svg>