<svg xmlns="http://www.w3.org/2000/svg" viewBox="0 0 100 100" width="100" height="100">
  <!-- 龍貓頭像 - 吉卜力風格 -->
  <defs>
    <radialGradient id="bodyGradient" cx="0.3" cy="0.3">
      <stop offset="0%" stop-color="#8B7355"/>
      <stop offset="100%" stop-color="#5D4E37"/>
    </radialGradient>
    <radialGradient id="bellyGradient" cx="0.3" cy="0.3">
      <stop offset="0%" stop-color="#F5F5DC"/>
      <stop offset="100%" stop-color="#E6E6D4"/>
    </radialGradient>
  </defs>
  
  <!-- 身體 -->
  <ellipse cx="50" cy="60" rx="35" ry="30" fill="url(#bodyGradient)"/>
  
  <!-- 肚子 -->
  <ellipse cx="50" cy="65" rx="25" ry="20" fill="url(#bellyGradient)"/>
  
  <!-- 耳朵 -->
  <ellipse cx="35" cy="35" rx="8" ry="15" fill="url(#bodyGradient)" transform="rotate(-20 35 35)"/>
  <ellipse cx="65" cy="35" rx="8" ry="15" fill="url(#bodyGradient)" transform="rotate(20 65 35)"/>
  
  <!-- 頭部 -->
  <circle cx="50" cy="45" r="25" fill="url(#bodyGradient)"/>
  
  <!-- 眼睛 -->
  <circle cx="42" cy="40" r="6" fill="#000"/>
  <circle cx="58" cy="40" r="6" fill="#000"/>
  <circle cx="44" cy="38" r="2" fill="#FFF"/>
  <circle cx="60" cy="38" r="2" fill="#FFF"/>
  
  <!-- 鼻子 -->
  <ellipse cx="50" cy="48" rx="2" ry="1.5" fill="#000"/>
  
  <!-- 嘴巴 -->
  <path d="M 46 52 Q 50 55 54 52" stroke="#000" stroke-width="1.5" fill="none"/>
  
  <!-- 鬍鬚 -->
  <line x1="30" y1="45" x2="38" y2="46" stroke="#000" stroke-width="1"/>
  <line x1="30" y1="50" x2="38" y2="50" stroke="#000" stroke-width="1"/>
  <line x1="62" y1="46" x2="70" y2="45" stroke="#000" stroke-width="1"/>
  <line x1="62" y1="50" x2="70" y2="50" stroke="#000" stroke-width="1"/>
  
  <!-- 肚子上的圖案 -->
  <circle cx="45" cy="62" r="1.5" fill="#D2B48C"/>
  <circle cx="50" cy="68" r="1.5" fill="#D2B48C"/>
  <circle cx="55" cy="62" r="1.5" fill="#D2B48C"/>
</svg>